<svg xmlns="http://www.w3.org/2000/svg" viewBox="0 0 200 200" role="img" aria-labelledby="title">
<title>Raven illustration</title>
<path fill="#0c0d0f" d="M22 132c18 12 42 22 70 20 28-2 56-18 66-38l20 2-14-16 12-10-20-6c-4-20-18-38-38-46-12-5-26-6-38-2-6-14-22-24-40-24-12 0-24 6-32 14l-12-6 6 18-12 10 16 6c-6 20-4 42 6 60 6 12 16 22 26 30z"/>
<path fill="#0c0d0f" d="M130 66c12-2 26 2 36 10l-10 10 14 8-20 4c-10 10-24 18-40 22-18 4-38 2-54-6l-6-18c12 8 30 12 48 10 18-2 32-10 40-22l-10-18 2 0z"/>
<path fill="#0c0d0f" d="M78 146l-10 24 12-6 4 12 10-32-16-4z"/>
<path fill="#0c0d0f" d="M60 154l-26 22 26 0 6-14-6-8z"/>
<circle cx="132" cy="58" r="8" fill="#0c0d0f"/>
<path fill="#0c0d0f" d="M138 68l30 6-26 10-4-16z"/>
</svg>
